<svg width="30" height="20" viewBox="0 0 30 20" fill="none" xmlns="http://www.w3.org/2000/svg">
<path d="M18.918 20H25.4153C25.7941 20 26.1403 19.786 26.3097 19.4472L29.8944 12.2778C29.9639 12.139 30 11.9858 30 11.8306V1C30 0.447715 29.5523 0 29 0H17.6667C17.1144 0 16.6667 0.447714 16.6667 0.999999V12.3333C16.6667 12.8856 17.1144 13.3333 17.6667 13.3333H19.0153C19.7587 13.3333 20.2422 14.1156 19.9097 14.7805L18.0236 18.5528C17.6912 19.2177 18.1747 20 18.918 20Z" fill="#E5EEFF"/>
<path d="M2.25137 20H8.74863C9.1274 20 9.47367 19.786 9.64306 19.4472L13.2278 12.2778C13.2972 12.139 13.3333 11.9858 13.3333 11.8306V1C13.3333 0.447715 12.8856 0 12.3333 0H1C0.447715 0 0 0.447714 0 0.999999V12.3333C0 12.8856 0.447715 13.3333 1 13.3333H2.34863C3.09201 13.3333 3.57551 14.1156 3.24306 14.7805L1.35694 18.5528C1.02449 19.2177 1.50798 20 2.25137 20Z" fill="#E5EEFF"/>
</svg>
